<?xml version="1.0" encoding="UTF-8" standalone="no"?><!DOCTYPE svg PUBLIC "-//W3C//DTD SVG 1.1//EN" "http://www.w3.org/Graphics/SVG/1.1/DTD/svg11.dtd"><svg width="100%" height="100%" viewBox="0 0 1250 250" version="1.1" xmlns="http://www.w3.org/2000/svg" xmlns:xlink="http://www.w3.org/1999/xlink" xml:space="preserve" xmlns:serif="http://www.serif.com/" style="fill-rule:evenodd;clip-rule:evenodd;stroke-linejoin:round;stroke-miterlimit:2;"><circle cx="255.872" cy="125" r="95.833" style="fill:#fff;"/><path d="M370.074,50.573l-66.603,120.412c-4.453,7.965 -11.257,11.947 -20.414,11.947l-11.759,-0l0,-83.63l-46.283,72.059c-4.954,7.714 -12.26,11.571 -21.919,11.571l-13.358,-0l9.878,-108.653l-43.744,0l14.488,-23.706l41.579,0c5.08,0 9.439,1.16 13.076,3.481c4.892,3.198 7.338,8.184 7.338,14.957c-0,1.004 -0.063,2.038 -0.188,3.104l-6.774,63.781l44.873,-71.212c3.198,-5.08 6.052,-8.529 8.56,-10.348c3.512,-2.509 8.31,-3.763 14.393,-3.763l9.219,0l0,83.442l45.155,-83.442l22.483,0Z" style="fill-rule:nonzero;stroke:#fff;stroke-width:2.02px;"/><path d="M484.778,135.936l9.872,-53.971l20.572,-0l-18.266,86.07l-21.518,0l-11.527,-49.065l-11.291,49.065l-21.458,0l-18.326,-86.07l20.631,-0l9.872,53.971l11.823,-53.971l17.616,-0l12,53.971Z" style="fill:#fff;fill-rule:nonzero;"/><path d="M576.701,131.503l-32.631,-0l-0,20.571l38.542,0l0,15.961l-59.291,0l-0,-86.07l59.41,-0l-0,16.02l-38.661,-0l-0,18.148l32.631,-0l-0,15.37Z" style="fill:#fff;fill-rule:nonzero;"/><path d="M591.066,168.035l-0,-86.07l30.916,-0c11.074,-0 19.498,2.029 25.272,6.089c5.773,4.059 8.66,9.951 8.66,17.675c-0,4.453 -1.025,8.256 -3.074,11.409c-2.049,3.153 -5.064,5.478 -9.044,6.975c4.492,1.183 7.941,3.39 10.345,6.621c2.404,3.232 3.606,7.173 3.606,11.823c-0,8.434 -2.67,14.769 -8.01,19.005c-5.34,4.237 -13.252,6.394 -23.735,6.473l-34.936,0Zm20.749,-36.592l-0,20.631l13.596,0c3.744,0 6.621,-0.857 8.631,-2.571c2.01,-1.714 3.015,-4.128 3.015,-7.242c-0,-7.172 -3.567,-10.778 -10.7,-10.818l-14.542,0Zm-0,-13.596l10.818,0c4.532,-0.039 7.763,-0.869 9.694,-2.49c1.931,-1.621 2.897,-4.012 2.897,-7.174c-0,-3.637 -1.044,-6.256 -3.133,-7.856c-2.089,-1.601 -5.458,-2.401 -10.109,-2.401l-10.167,-0l-0,19.921Z" style="fill:#fff;fill-rule:nonzero;"/><path d="M722.536,131.503l-32.631,-0l-0,20.571l38.542,0l0,15.961l-59.291,0l-0,-86.07l59.409,-0l0,16.02l-38.66,-0l-0,18.148l32.631,-0l-0,15.37Z" style="fill:#fff;fill-rule:nonzero;"/><path d="M791.108,133.749l-33.458,-0l-0,34.286l-20.75,0l0,-86.07l57.578,-0l-0,16.02l-36.828,-0l-0,19.803l33.458,0l0,15.961Z" style="fill:#fff;fill-rule:nonzero;"/><rect x="804.527" y="81.965" width="20.69" height="86.07" style="fill:#fff;fill-rule:nonzero;"/><path d="M911.524,168.035l-20.631,0l-30.503,-53.557l-0,53.557l-20.749,0l-0,-86.07l20.749,-0l30.444,53.557l-0,-53.557l20.69,-0l-0,86.07Z" style="fill:#fff;fill-rule:nonzero;"/><rect x="926.066" y="81.965" width="20.69" height="86.07" style="fill:#fff;fill-rule:nonzero;"/><path d="M1027.03,97.985l-25.833,-0l0,70.05l-20.749,0l-0,-70.05l-25.36,-0l-0,-16.02l71.942,-0l-0,16.02Z" style="fill:#fff;fill-rule:nonzero;"/><path d="M1068.24,119.325l15.842,-37.36l22.404,-0l-27.724,55.153l-0,30.917l-21.045,0l0,-30.917l-27.665,-55.153l22.286,-0l15.902,37.36Z" style="fill:#fff;fill-rule:nonzero;"/></svg>